<svg width="300" height="300" viewBox="0 0 300 300" fill="none" xmlns="http://www.w3.org/2000/svg">
<path d="M138.229 82.274C138.229 82.274 176.862 85.121 213.958 81.803" stroke="#323232" stroke-width="12" stroke-linecap="round" stroke-linejoin="round"/>
<path d="M87.039 97.236C128.769 74.347 168.814 153.019 97.014 161.485C92.201 162.052 131.476 165.773 134.612 192.514C137.044 213.251 104.412 244.908 74.501 210.866" stroke="#323232" stroke-width="12" stroke-linecap="round" stroke-linejoin="round"/>
<path d="M120.28 166.16C137.663 179.954 162.337 172.439 175.079 158.826" stroke="#323232" stroke-width="12" stroke-linecap="round" stroke-linejoin="round"/>
<path d="M175.979 87.85C175.979 87.597 175.979 228.401 175.979 228.424" stroke="#323232" stroke-width="12" stroke-linecap="round" stroke-linejoin="round"/>
<path d="M223.235 110.177C204.206 110.177 203.435 130.283 221.478 130.283C241.268 130.283 240.548 111.263 222.223 110.395" stroke="#323232" stroke-width="12" stroke-linecap="round" stroke-linejoin="round"/>
<path d="M225.877 172.953C206.848 172.953 206.077 193.059 224.12 193.059C243.91 193.059 243.19 174.039 224.865 173.171" stroke="#323232" stroke-width="12" stroke-linecap="round" stroke-linejoin="round"/>
</svg>
