<svg width="300" height="300" viewBox="0 0 300 300" fill="none" xmlns="http://www.w3.org/2000/svg">
<path d="M153.635 101.949C153.392 108.157 155.052 129.204 154.532 129.203C141.219 129.17 124.797 129.006 119.592 135.941C108.477 150.749 121.476 164.598 123.127 165.799C135.408 174.733 162.718 160.359 164.306 166.239C176.362 210.884 142.537 219.108 122.355 212.448C118.211 211.081 120.361 193.085 123.555 194.559C131.476 198.215 156.462 223.323 165.297 227.067" stroke="#323232" stroke-width="12" stroke-linecap="round" stroke-linejoin="round"/>
<path d="M88.293 96.798C88.293 96.798 163.323 96.714 207.603 96.714" stroke="#323232" stroke-width="12" stroke-linecap="round" stroke-linejoin="round"/>
<path d="M156.808 96.351C112.349 90.207 124.126 36.019 157.941 56.34" stroke="#323232" stroke-width="12" stroke-linecap="round" stroke-linejoin="round"/>
</svg>
