<svg width="300" height="300" viewBox="0 0 300 300" fill="none" xmlns="http://www.w3.org/2000/svg">
<path d="M98.153 98.879C98.153 98.879 160.152 98.359 196.742 98.359" stroke="#323232" stroke-width="12" stroke-linecap="round" stroke-linejoin="round"/>
<path d="M147.884 100.564L148.037 127.293L148.645 214.273" stroke="#323232" stroke-width="12" stroke-linecap="round" stroke-linejoin="round"/>
<path d="M148.065 163.772C130.673 153.466 112.767 148.627 98.092 134.606" stroke="#323232" stroke-width="12" stroke-linecap="round" stroke-linejoin="round"/>
<path d="M148.6 163.206C134.38 178.156 117.347 192.222 104.456 208.621" stroke="#323232" stroke-width="12" stroke-linecap="round" stroke-linejoin="round"/>
<path d="M146.29 163.29C155.846 162.16 166.305 150.429 172.197 143.365C173.735 141.521 177.056 132.909 169.99 132.772C163.752 132.651 164.753 137.02 170.813 146.696C175.026 153.423 186.473 160.818 194.678 160.818C196.6 160.818 155.836 192.973 199.956 202.728" stroke="#323232" stroke-width="12" stroke-linecap="round" stroke-linejoin="round"/>
</svg>
