<svg width="300" height="300" viewBox="0 0 300 300" fill="none" xmlns="http://www.w3.org/2000/svg">
<path d="M89.738 90.889C89.738 90.889 193.361 91.642 213.168 91.327" stroke="#323232" stroke-width="12" stroke-linecap="round" stroke-linejoin="round"/>
<path d="M117.675 99.274C92.444 110.462 94.794 139.158 125.761 139.158C129.59 139.158 118.006 141.14 115.254 143.803C110.46 148.441 104.865 157.905 106.431 165.039C110.988 185.806 133.374 201.608 153.912 202.82C175.707 204.107 196.302 181.282 196.302 160.33C196.302 155.165 197.563 138.927 193.137 135.657C173.2 120.932 174.714 159.355 178.382 168.807" stroke="#323232" stroke-width="12" stroke-linecap="round" stroke-linejoin="round"/>
<path d="M188.996 98.9041C188.996 111.693 189.849 116.305 189.849 129.055" stroke="#323232" stroke-width="12" stroke-linecap="round" stroke-linejoin="round"/>
</svg>
