<svg width="300" height="300" viewBox="0 0 300 300" fill="none" xmlns="http://www.w3.org/2000/svg">
<path d="M73.141 100.016C73.141 100.016 147.684 95.085 219.263 100.831" stroke="#323232" stroke-width="12" stroke-linecap="round" stroke-linejoin="round"/>
<path d="M134.34 106.108C134.097 112.316 135.757 133.363 135.237 133.362C121.924 133.329 105.502 133.165 100.297 140.1C89.182 154.908 102.181 168.757 103.832 169.958C116.113 178.892 143.423 164.518 145.011 170.398C157.067 215.043 123.242 223.267 103.06 216.607C98.916 215.24 101.066 197.244 104.26 198.718C112.181 202.374 137.167 227.482 146.002 231.226" stroke="#323232" stroke-width="12" stroke-linecap="round" stroke-linejoin="round"/>
<path d="M143.701 170.508C161.233 173.604 169.056 169.336 177.136 167.114" stroke="#323232" stroke-width="12" stroke-linecap="round" stroke-linejoin="round"/>
<path d="M182.678 98.793V239.367" stroke="#323232" stroke-width="12" stroke-linecap="round" stroke-linejoin="round"/>
</svg>
