<svg width="300" height="300" viewBox="0 0 300 300" fill="none" xmlns="http://www.w3.org/2000/svg">
<path d="M89.423 85.397C89.423 85.397 164.453 85.313 208.733 85.313" stroke="#323232" stroke-width="12" stroke-linecap="round" stroke-linejoin="round"/>
<path d="M146.155 89.593C146.155 97.086 146.885 104.513 147.271 111.993C147.444 115.346 148.847 125.225 147.747 122.053C144.287 112.069 121.028 120.929 122.222 133.23C122.582 136.947 128.085 138.893 130.794 140.619C138.122 145.289 171.806 158.119 159.304 172.408C157.904 174.008 153.379 168.702 152.763 166.667C151.205 161.514 149.82 157.11 147.052 152.374C142.961 145.375 133.113 140.534 128.218 151.058C119.799 169.161 117.787 195.527 132.946 211.043C144.975 223.354 168.997 220.42 170.011 202.375" stroke="#323232" stroke-width="12" stroke-linecap="round" stroke-linejoin="round"/>
</svg>
